<svg width="37" height="36" viewBox="0 0 37 36" fill="none" xmlns="http://www.w3.org/2000/svg">
<g clip-path="url(#clip0)">
<path d="M19.4375 7.90022C21.3594 7.69256 23.3469 7.95686 25.2312 8.76862L28.8219 5.97466C29.1406 5.7198 29.1875 5.25729 28.925 4.9458C26.7781 2.43501 23.6844 0.773735 20.1969 0.528319C19.7937 0.500002 19.4469 0.830369 19.4469 1.23625L19.4469 7.90022L19.4375 7.90022Z" fill="white"/>
<path d="M1.20294 14.9228L9.97793 14.9228C10.9998 12.5536 12.7717 10.5903 14.9936 9.33487L14.9936 1.21729C14.9936 0.811408 14.6654 0.490481 14.2623 0.509359C6.80918 0.792531 0.87481 6.77689 0.49981 14.1865C0.48106 14.583 0.79981 14.9228 1.20294 14.9228Z" fill="white"/>
<path d="M32.3371 19.4442C32.4027 25.9099 27.1996 31.2524 20.7777 31.3091C14.309 31.3657 9.02149 26.0798 9.02149 19.5763L5.58086 19.5763C5.17774 19.5763 4.85899 19.9161 4.87774 20.322C5.26211 28.77 12.1902 35.5 20.684 35.5C29.4309 35.5 36.5559 28.2791 36.4996 19.4631C36.4809 16.1405 35.4496 13.0539 33.6965 10.5148C33.4621 10.1845 33.0027 10.109 32.684 10.3638L29.9652 12.4876C31.4277 14.4226 32.309 16.839 32.3371 19.4442Z" fill="white"/>
<path d="M30.2832 19.5763C30.2832 14.3263 25.9696 10.0419 20.6837 10.0419C15.3884 10.0419 11.0842 14.3169 11.0842 19.5763C11.0842 24.8357 15.3884 29.1107 20.6837 29.1107C25.9696 29.1201 30.2832 24.8357 30.2832 19.5763ZM19.6171 25.9138L19.6171 24.9013C18.5221 24.9013 17.5594 24.4419 16.8703 23.7201C16.4644 23.2982 16.4927 22.6232 16.9175 22.2201C17.3423 21.8263 18.0124 21.8357 18.4278 22.2669C18.7298 22.5951 19.1546 22.7826 19.5699 22.7826C20.4288 22.7826 21.0141 22.7826 21.873 22.7826C22.4677 22.7826 22.9585 22.3044 22.9585 21.7138C22.9585 21.1232 22.4771 20.6451 21.873 20.6451L19.4849 20.6451C17.7104 20.6451 16.2662 19.2107 16.2662 17.4482C16.2662 15.8076 17.5405 14.2513 19.6076 14.2513L19.6076 13.2388C19.6076 12.6576 20.089 12.1794 20.6742 12.1794C21.2595 12.1794 21.7409 12.6576 21.7409 13.2388L21.7409 14.2513C22.496 14.2513 23.2322 14.3357 24.1006 14.9263C24.582 15.2638 24.7047 15.9201 24.3649 16.3982C24.0251 16.8763 23.3644 16.9982 22.883 16.6607C22.6281 16.4826 22.3072 16.3607 21.9957 16.3607L19.4849 16.3607C18.8903 16.3607 18.3994 16.8388 18.3994 17.4388C18.3994 18.0294 18.8808 18.5076 19.4849 18.5076C20.5421 18.5076 20.7592 18.5076 21.873 18.5076C23.6475 18.5076 25.0917 19.9419 25.0917 21.7044C25.0917 23.3544 23.8175 24.9013 21.7503 24.9013L21.7503 25.9138C21.7503 26.4951 21.2689 26.9732 20.6837 26.9732C20.089 26.9732 19.6171 26.5045 19.6171 25.9138Z" fill="white"/>
</g>
<defs>
<clipPath id="clip0">
<rect width="35" height="36" fill="white" transform="translate(0.5 35.5) rotate(-90)"/>
</clipPath>
</defs>
</svg>
