<svg width="40" height="40" viewBox="0 0 40 40" fill="none" xmlns="http://www.w3.org/2000/svg">
<circle cx="20" cy="20" r="20" fill="white"/>
<path d="M21.7791 23.3975C21.7791 22.7939 21.6082 22.3155 21.2665 21.9621C20.9321 21.6015 20.36 21.2702 19.5502 20.9685C18.7403 20.6667 18.0419 20.3686 17.4549 20.0741C16.8679 19.7723 16.3627 19.4301 15.9392 19.0473C15.5231 18.6572 15.1962 18.2008 14.9585 17.6782C14.7281 17.1556 14.613 16.5336 14.613 15.8123C14.613 14.5683 15.0142 13.5489 15.8166 12.7539C16.619 11.959 17.6852 11.4953 19.0152 11.3628V9H20.7984V11.3959C22.1135 11.5799 23.1425 12.1246 23.8855 13.03C24.6285 13.928 25 15.0946 25 16.53H21.7791C21.7791 15.6467 21.5934 14.9879 21.2219 14.5536C20.8578 14.112 20.3674 13.8912 19.7508 13.8912C19.1415 13.8912 18.6697 14.0641 18.3354 14.4101C18.001 14.7487 17.8338 15.2198 17.8338 15.8233C17.8338 16.3828 17.9973 16.8318 18.3242 17.1703C18.6511 17.5089 19.2567 17.8549 20.1408 18.2082C21.0324 18.5615 21.7643 18.8964 22.3364 19.2129C22.9085 19.5221 23.3914 19.8754 23.7852 20.2729C24.179 20.663 24.4799 21.112 24.6879 21.6199C24.896 22.1204 25 22.7056 25 23.3754C25 24.6267 24.6062 25.6425 23.8186 26.4227C23.0311 27.2029 21.9463 27.663 20.5643 27.8028V30H18.7923V27.8139C17.2692 27.6519 16.0878 27.1183 15.2482 26.2129C14.4161 25.3002 14 24.0894 14 22.5804H17.2209C17.2209 23.4564 17.4289 24.1299 17.845 24.6009C18.2685 25.0647 18.874 25.2965 19.6616 25.2965C20.3154 25.2965 20.8318 25.1272 21.2107 24.7886C21.5897 24.4427 21.7791 23.979 21.7791 23.3975Z" fill="#0FC679"/>
</svg>
