<svg width="40" height="40" viewBox="0 0 40 40" fill="none" xmlns="http://www.w3.org/2000/svg">
<circle cx="20" cy="20" r="20" fill="white"/>
<path d="M10 13.2224C10 11.9693 10.4146 10.9546 11.2438 10.1784C12.073 9.39279 13.1595 9 14.5034 9C15.8663 9 16.9624 9.38811 17.7916 10.1643C18.6208 10.9312 19.0354 11.9739 19.0354 13.2926V14.3026C19.0354 15.5651 18.6208 16.5798 17.7916 17.3467C16.9624 18.1136 15.8758 18.497 14.532 18.497C13.1786 18.497 12.0825 18.1136 11.2438 17.3467C10.4146 16.5705 10 15.5277 10 14.2184V13.2224ZM12.7449 14.3026C12.7449 14.8637 12.9069 15.3173 13.231 15.6633C13.5646 16 13.9982 16.1683 14.532 16.1683C15.0657 16.1683 15.4898 15.9953 15.8044 15.6493C16.1189 15.3033 16.2761 14.8403 16.2761 14.2605V13.2224C16.2761 12.6613 16.1189 12.2077 15.8044 11.8617C15.4898 11.5157 15.0562 11.3427 14.5034 11.3427C13.9792 11.3427 13.5551 11.5157 13.231 11.8617C12.9069 12.1984 12.7449 12.6707 12.7449 13.2786V14.3026ZM19.9503 24.7114C19.9503 23.4489 20.3697 22.4342 21.2084 21.6673C22.0472 20.8911 23.1337 20.503 24.468 20.503C25.8214 20.503 26.9127 20.8864 27.7419 21.6533C28.5806 22.4108 29 23.4582 29 24.7956V25.8056C29 27.0588 28.5902 28.0735 27.7705 28.8497C26.9508 29.6166 25.8595 30 24.4966 30C23.1242 30 22.0233 29.6119 21.1941 28.8357C20.3649 28.0595 19.9503 27.0307 19.9503 25.7495V24.7114ZM22.6953 25.8056C22.6953 26.32 22.8668 26.7595 23.2099 27.1242C23.553 27.489 23.9819 27.6713 24.4966 27.6713C25.6594 27.6713 26.2408 27.0401 26.2408 25.7776V24.7114C26.2408 24.1503 26.0788 23.7014 25.7547 23.3647C25.4306 23.0187 25.0018 22.8457 24.468 22.8457C23.9343 22.8457 23.5054 23.0187 23.1813 23.3647C22.8573 23.7014 22.6953 24.1643 22.6953 24.7535V25.8056ZM15.3469 28.1904L13.3311 27.1242L23.4959 11.1603L25.5117 12.2265L15.3469 28.1904Z" fill="#0FC679"/>
</svg>
